<svg xmlns="http://www.w3.org/2000/svg" width="42" height="42" viewBox="0 0 42 42">
  <metadata><?xpacket begin="﻿" id="W5M0MpCehiHzreSzNTczkc9d"?>
<x:xmpmeta xmlns:x="adobe:ns:meta/" x:xmptk="Adobe XMP Core 5.6-c138 79.159824, 2016/09/14-01:09:01        ">
   <rdf:RDF xmlns:rdf="http://www.w3.org/1999/02/22-rdf-syntax-ns#">
      <rdf:Description rdf:about=""/>
   </rdf:RDF>
</x:xmpmeta>
<?xpacket end="w"?></metadata>
<defs>
    <style>
      .cls-1 {
        fill: #303441;
      }

      .cls-1, .cls-3 {
        fill-rule: evenodd;
      }

      .cls-2 {
        fill: #234dd4;
      }

      .cls-3 {
        fill: #fff;
      }
    </style>
  </defs>
  <circle class="cls-2" cx="21" cy="21" r="21"/>
  <path id="Forma_1" data-name="Forma 1" class="cls-3" d="M27,8.993h3v4.543l-3-2.243v-2.3Zm4.016,8.9a1.743,1.743,0,0,0-.7-1.4L22.066,9.627a1.785,1.785,0,0,0-2.129,0L11.691,16.5a1.742,1.742,0,0,0-.7,1.4v10.36a1.758,1.758,0,0,0,1.768,1.749H29.248a1.759,1.759,0,0,0,1.768-1.749V17.9ZM23,23a1.118,1.118,0,0,0-.948-1.02h-2.1A1.121,1.121,0,0,0,19,23v3H15V19l6-5.064L27,19v7H23V23Z"/>
</svg>
